<svg version="1.1" xmlns="http://www.w3.org/2000/svg" xmlns:xlink="http://www.w3.org/1999/xlink">

	<g data-category="xel">
		




    <g id="Sketch" stroke="none" y="-10" stroke-width="1" fill="none" fill-rule="evenodd">
        <g id="element" >
            <rect id="Rectangle-13" fill="#737373" x="0" y="10" width="87" height="87" rx="8"></rect>
            <polygon id="Triangle-3" stroke="#737373" y="10" stroke-width="5" fill="#D7D7D7" points="41.4672897 5.69158879 76.4299065 75.6168224 6.5046729 75.6168224"></polygon>
            <circle id="Oval" stroke="#737373" y="10" stroke-width="5" fill="#D7D7D7" cx="55.2897196" cy="43.0934579" r="21.1401869"></circle>
        </g>
    </g>


<svg width="3px" height="103px" viewBox="0 0 3 103" version="1.1" xmlns="http://www.w3.org/2000/svg" xmlns:xlink="http://www.w3.org/1999/xlink">
    <!-- Generator: Sketch 43.2 (39069) - http://www.bohemiancoding.com/sketch -->
    <desc>Created with Sketch.</desc>
    <defs></defs>
    <g id="VR" stroke="none" stroke-width="1" fill="none" fill-rule="evenodd" stroke-linecap="square" opacity="0.5">
        <path d="M1.5,1.5 L1.5,101.5" id="Line" stroke="#979797" stroke-width="3"></path>
    </g>
</svg>
<svg width="100px" height="100px" viewBox="0 0 84 74" version="1.1" xmlns="http://www.w3.org/2000/svg" xmlns:xlink="http://www.w3.org/1999/xlink">
    <!-- Generator: Sketch 43.2 (39069) - http://www.bohemiancoding.com/sketch -->
    <desc>Created with Sketch.</desc>
    <defs></defs>
    <g id="amiddle" stroke="none" stroke-width="1" fill="none" fill-rule="evenodd">
        <g id="Group-3-Copy-6" transform="translate(41.000000, 37.000000) rotate(90.000000) translate(-41.000000, -37.000000) translate(-9.000000, -13.000000)">
            <rect id="Rectangle-11" x="0" y="0" width="100" height="100"></rect>
            <g id="Group-2" transform="translate(13.000000, 7.000000)">
                <rect id="Rectangle-10-Copy-2" fill="#9B9B9B" x="35" y="0" width="5" height="84"></rect>
                <rect id="Rectangle-10" fill="#4990E2" x="0" y="13" width="74" height="14.7368421"></rect>
                <rect id="Rectangle-10-Copy" fill="#4990E2" x="18" y="55" width="37" height="14.7368421"></rect>
            </g>
        </g>
    </g>
</svg>
<svg width="100px" height="100px" viewBox="0 0 100 100" version="1.1" xmlns="http://www.w3.org/2000/svg" xmlns:xlink="http://www.w3.org/1999/xlink">
    <!-- Generator: Sketch 43.2 (39069) - http://www.bohemiancoding.com/sketch -->
    <desc>Created with Sketch.</desc>
    <defs></defs>
    <g id="abottom" stroke="none" stroke-width="1" fill="none" fill-rule="evenodd">
        <g id="Group-3-Copy-5" transform="translate(50.000000, 50.000000) rotate(-90.000000) translate(-50.000000, -50.000000) ">
            <rect id="Rectangle-11" x="0" y="0" width="100" height="100"></rect>
            <g id="Group-2" transform="translate(9.000000, 8.000000)">
                <rect id="Rectangle-10-Copy-2" fill="#9B9B9B" x="0" y="0" width="5" height="84"></rect>
                <rect id="Rectangle-10" fill="#4990E2" x="8" y="13" width="74" height="14.7368421"></rect>
                <rect id="Rectangle-10-Copy" fill="#4990E2" x="8" y="55" width="37" height="14.7368421"></rect>
            </g>
        </g>
    </g>
</svg>
<svg width="100px" height="100px" viewBox="0 0 84 82" version="1.1" xmlns="http://www.w3.org/2000/svg" xmlns:xlink="http://www.w3.org/1999/xlink">
    <!-- Generator: Sketch 43.2 (39069) - http://www.bohemiancoding.com/sketch -->
    <desc>Created with Sketch.</desc>
    <defs></defs>
    <g id="atop" stroke="none" stroke-width="1" fill="none" fill-rule="evenodd">
        <g id="Group-3-Copy-5" transform="translate(43.000000, 41.000000) scale(-1, 1) rotate(90.000000) translate(-43.000000, -41.000000) translate(-7.000000, -9.000000)">
            <rect id="Rectangle-11" x="0" y="0" width="100" height="100"></rect>
            <g id="Group-2" transform="translate(9.000000, 7.000000)">
                <rect id="Rectangle-10-Copy-2" fill="#9B9B9B" x="0" y="0" width="5" height="84"></rect>
                <rect id="Rectangle-10" fill="#4990E2" x="8" y="13" width="74" height="14.7368421"></rect>
                <rect id="Rectangle-10-Copy" fill="#4990E2" x="8" y="55" width="37" height="14.7368421"></rect>
            </g>
        </g>
    </g>
</svg>
		
<svg width="50px" height="50px" viewBox="0 0 74 84" version="1.1" xmlns="http://www.w3.org/2000/svg" xmlns:xlink="http://www.w3.org/1999/xlink">
    <!-- Generator: Sketch 43.2 (39069) - http://www.bohemiancoding.com/sketch -->
    <desc>Created with Sketch.</desc>
    <defs></defs>
    <g id="amiddle" stroke="none" stroke-width="1" fill="none" fill-rule="evenodd">
        <g id="Group-3" transform="translate(-13.000000, -7.000000)">
            <rect id="Rectangle-11" x="0" y="0" width="100" height="100"></rect>
            <g id="Group-2" transform="translate(13.000000, 7.000000)">
                <rect id="Rectangle-10-Copy-2" fill="#9B9B9B" x="35" y="0" width="5" height="84"></rect>
                <rect id="Rectangle-10" fill="#4990E2" x="0" y="13" width="74" height="14.7368421"></rect>
                <rect id="Rectangle-10-Copy" fill="#4990E2" x="18" y="55" width="37" height="14.7368421"></rect>
            </g>
        </g>
    </g>
</svg>		
		
<svg width="100px" height="100px" viewBox="0 0 82 84" version="1.1" xmlns="http://www.w3.org/2000/svg" xmlns:xlink="http://www.w3.org/1999/xlink">
    <!-- Generator: Sketch 43.2 (39069) - http://www.bohemiancoding.com/sketch -->
    <desc>Created with Sketch.</desc>
    <defs></defs>
    <g id="aright" stroke="none" stroke-width="1" fill="none" fill-rule="evenodd">
        <g id="Group-3-Copy-4" transform="translate(41.000000, 43.000000) scale(-1, 1) translate(-41.000000, -43.000000) translate(-9.000000, -7.000000)">
            <rect id="Rectangle-11" x="0" y="0" width="100" height="100"></rect>
            <g id="Group-2" transform="translate(9.000000, 7.000000)">
                <rect id="Rectangle-10-Copy-2" fill="#9B9B9B" x="0" y="0" width="5" height="84"></rect>
                <rect id="Rectangle-10" fill="#4990E2" x="8" y="13" width="74" height="14.7368421"></rect>
                <rect id="Rectangle-10-Copy" fill="#4990E2" x="8" y="55" width="37" height="14.7368421"></rect>
            </g>
        </g>
    </g>
</svg>		

<svg width="100px" height="100px" viewBox="0 0 82 84" version="1.1" xmlns="http://www.w3.org/2000/svg" xmlns:xlink="http://www.w3.org/1999/xlink">
    <!-- Generator: Sketch 43.2 (39069) - http://www.bohemiancoding.com/sketch -->
    <desc>Created with Sketch.</desc>
    <defs></defs>
    <g id="aleft" stroke="none" stroke-width="1" fill="none" fill-rule="evenodd">
        <g id="Group-3-Copy-3" transform="translate(-9.000000, -7.000000)">
            <rect id="Rectangle-11" x="0" y="0" width="100" height="100"></rect>
            <g id="Group-2" transform="translate(9.000000, 7.000000)">
                <rect id="Rectangle-10-Copy-2" fill="#9B9B9B" x="0" y="0" width="5" height="84"></rect>
                <rect id="Rectangle-10" fill="#4990E2" x="8" y="13" width="74" height="14.7368421"></rect>
                <rect id="Rectangle-10-Copy" fill="#4990E2" x="8" y="55" width="37" height="14.7368421"></rect>
            </g>
        </g>
    </g>
</svg>		
		
<svg width="84px" height="76px" viewBox="0 0 84 76" version="1.1" xmlns="http://www.w3.org/2000/svg" xmlns:xlink="http://www.w3.org/1999/xlink">
    <!-- Generator: Sketch 43.2 (39069) - http://www.bohemiancoding.com/sketch -->
    <desc>Created with Sketch.</desc>
    <defs></defs>
    <g id="dmiddle" stroke="none" stroke-width="1" fill="none" fill-rule="evenodd">
        <g id="Group-3-Copy-2" transform="translate(41.000000, 38.000000) rotate(90.000000) translate(-41.000000, -38.000000) translate(-9.000000, -12.000000)">
            <rect id="Rectangle-11" x="0" y="0" width="100" height="100"></rect>
            <g id="Group-2" transform="translate(12.000000, 7.000000)">
                <rect id="Rectangle-10-Copy-2" fill="#9B9B9B" x="0" y="0" width="5" height="84"></rect>
                <rect id="Rectangle-10-Copy-3" fill="#9B9B9B" x="71" y="0" width="5" height="84"></rect>
                <rect id="Rectangle-10" fill="#4990E2" transform="translate(38.368421, 42.000000) rotate(90.000000) translate(-38.368421, -42.000000) " x="1.36842105" y="34.6315789" width="74" height="14.7368421"></rect>
            </g>
        </g>
    </g>
</svg>
		

<svg width="100px" height="100px" viewBox="0 0 76 84" version="1.1" xmlns="http://www.w3.org/2000/svg" xmlns:xlink="http://www.w3.org/1999/xlink">
    <!-- Generator: Sketch 43.2 (39069) - http://www.bohemiancoding.com/sketch -->
    <desc>Created with Sketch.</desc>
    <defs></defs>
    <g id="dcenter" stroke="none" stroke-width="1" fill="none" fill-rule="evenodd">
        <g id="Group-3-Copy" transform="translate(-12.000000, -7.000000)">
            <rect id="Rectangle-11" x="0" y="0" width="100" height="100"></rect>
            <g id="Group-2" transform="translate(12.000000, 7.000000)">
                <rect id="Rectangle-10-Copy-2" fill="#9B9B9B" x="0" y="0" width="5" height="84"></rect>
                <rect id="Rectangle-10-Copy-3" fill="#9B9B9B" x="71" y="0" width="5" height="84"></rect>
                <rect id="Rectangle-10" fill="#4990E2" transform="translate(38.368421, 42.000000) rotate(90.000000) translate(-38.368421, -42.000000) " x="1.36842105" y="34.6315789" width="74" height="14.7368421"></rect>
            </g>
        </g>
    </g>
</svg>



		
		
		<symbol id="text" viewBox="-10 -8 65 65">


        <g id="Group-2">
            <polygon id="T" points="25.2773438 50.7304688 25.2773438 8.75390625 39.9726562 8.75390625 39.9726562 0 0 0 0 8.75390625 14.6601562 8.75390625 14.6601562 50.7304688"></polygon>
        </g>



		</symbol>
		

		<symbol id="actions" viewBox="0 -12 100 100">


        <path d="M50.5121933,9.5 L57.3526824,2.65951088 C60.478344,-0.466150669 65.5467394,-0.465453891 68.6717042,2.65951088 L98.3648757,32.3526824 C101.490537,35.478344 101.489841,40.5467394 98.3648757,43.6717042 L68.6717042,73.3648757 C65.5460426,76.4905373 60.4776472,76.4898405 57.3526824,73.3648757 L50.5121933,66.5243866 L43.6717042,73.3648757 C40.5460426,76.4905373 35.4776472,76.4898405 32.3526824,73.3648757 L2.65951088,43.6717042 C-0.466150669,40.5460426 -0.465453891,35.4776472 2.65951088,32.3526824 L32.3526824,2.65951088 C35.478344,-0.466150669 40.5467394,-0.465453891 43.6717042,2.65951088 L50.5121933,9.5 Z M45.259145,14.7530483 L43.6697476,13.1636509 C40.5476082,10.0415115 35.47922,10.03907 32.3546391,13.1636509 L13.1636509,32.3546391 C10.0415115,35.4767784 10.03907,40.5451666 13.1636509,43.6697476 L32.3546391,62.8607357 C35.4767784,65.9828751 40.5451666,65.9853166 43.6697476,62.8607357 L45.259145,61.2713383 L27.6595109,43.6717042 C24.5338493,40.5460426 24.5345461,35.4776472 27.6595109,32.3526824 L45.259145,14.7530483 Z" id="Combined-Shape"></path>



		</symbol>
		<symbol id="arrow-thick" viewBox="0 0 100 100">
			<path d="M 0.736 20.365 L 49.999 87.922 L 99.264 20.365 Z" />
		</symbol>
		<symbol id="arrow-thin" viewBox="0 0 100 100">
			<path d="M 11.699 19.846 L 49.822 57.886 L 87.945 19.846 L 99.657 31.557 L 49.822 81.392 L -0.013 31.557 Z" />
		</symbol>
		<symbol id="question" viewBox="0 0 100 100">
			<path d="M 41.81 99.136 L 58.19 99.136 L 58.19 82.756 L 41.81 82.756 L 41.81 99.136 Z" />
			<path d="M 50 0.864 C 31.902 0.864 17.244 15.523 17.244 33.62 L 33.62 33.62 C 33.62 24.614 40.993 17.244 50 17.244 C 59.007 17.244 66.38 24.614 66.38 33.62 C 66.38 50 41.81 47.952 41.81 74.566 L 58.19 74.566 C 58.19 56.142 82.756 54.093 82.756 33.62 C 82.756 15.523 68.098 0.864 50 0.864 Z" />
		</symbol>
		<symbol id="extensions-color" viewBox="0 0 100 100">
			<path d="M 86.821 47.906 L 80.136 47.906 L 80.136 30.077 C 80.136 25.174 76.124 21.163 71.222 21.163 L 53.393 21.163 L 53.393 14.476 C 53.393 8.325 48.4 3.332 42.25 3.332 C 36.098 3.332 31.106 8.325 31.106 14.476 L 31.106 21.163 L 13.276 21.163 C 8.374 21.163 4.406 25.174 4.406 30.077 L 4.406 47.015 L 11.048 47.015 C 17.689 47.015 23.083 52.409 23.083 59.049 C 23.083 65.692 17.689 71.085 11.048 71.085 L 4.36 71.085 L 4.36 88.023 C 4.36 92.925 8.374 96.938 13.276 96.938 L 30.214 96.938 L 30.214 90.25 C 30.214 83.61 35.607 78.216 42.25 78.216 C 48.89 78.216 54.284 83.61 54.284 90.25 L 54.284 96.938 L 71.222 96.938 C 76.124 96.938 80.136 92.925 80.136 88.023 L 80.136 70.193 L 86.821 70.193 C 92.974 70.193 97.966 65.201 97.966 59.049 C 97.966 52.899 92.974 47.906 86.821 47.906 Z" style="fill: rgb(12, 146, 255); stroke: rgb(14, 81, 136); stroke-width: 2;" />
		</symbol>
	</g>

</svg>